<?xml version="1.0" encoding="UTF-8"?>
<!DOCTYPE svg PUBLIC "-//W3C//DTD SVG 1.1//EN" "http://www.w3.org/Graphics/SVG/1.1/DTD/svg11.dtd">
<svg xmlns="http://www.w3.org/2000/svg" style="background: #ffffff; background-color: #ffffff; color-scheme: light;" xmlns:xlink="http://www.w3.org/1999/xlink" version="1.1" width="571px" height="651px" viewBox="-0.5 -0.5 571 651"><defs/><rect fill="#ffffff" style="fill: rgb(255, 255, 255);" width="100%" height="100%" x="0" y="0"/><g><g data-cell-id="0"><g data-cell-id="1"><g data-cell-id="OHsQAV0jZeQ9pRgXLDrz-15"><g><path d="M 238.63 32.5 C 204.72 32.5 196.25 65 223.37 71.5 C 196.25 85.8 226.76 117 248.8 104 C 264.05 130 314.9 130 331.85 104 C 365.75 104 365.75 78 344.56 65 C 365.75 39 331.85 13 302.19 26 C 281 6.5 247.1 6.5 238.63 32.5 Z" fill="#ffffff" style="fill: rgb(255, 255, 255); stroke: rgb(0, 0, 0);" stroke="#000000" stroke-miterlimit="10" pointer-events="all"/></g><g><g fill="#000000" style="fill: rgb(0, 0, 0);" font-family="&quot;Noto Serif&quot;" text-anchor="middle" font-size="18px"><text x="281" y="62">Upstream</text><text x="281" y="84">DNS-Server</text></g></g></g><g data-cell-id="OHsQAV0jZeQ9pRgXLDrz-21"><g><path d="M 281 340 L 281 276.37" fill="none" stroke="#000000" style="stroke: rgb(0, 0, 0);" stroke-miterlimit="10" pointer-events="stroke"/><path d="M 281 271.12 L 284.5 278.12 L 281 276.37 L 277.5 278.12 Z" fill="#000000" style="fill: rgb(0, 0, 0); stroke: rgb(0, 0, 0);" stroke="#000000" stroke-miterlimit="10" pointer-events="all"/></g></g><g data-cell-id="OHsQAV0jZeQ9pRgXLDrz-16"><g><path d="M 261 340 L 301 340 L 331 370 L 331 410 L 301 440 L 261 440 L 231 410 L 231 370 Z" fill="#ff0000" style="fill: rgb(255, 0, 0); stroke: rgb(0, 0, 0);" stroke="#000000" stroke-miterlimit="10" pointer-events="all"/></g><g><g fill="#000000" style="fill: rgb(0, 0, 0);" font-family="&quot;Noto Serif&quot;" text-anchor="middle" font-size="18px"><text x="281" y="387">Pi-hole</text><text x="281" y="409">DNS-Server</text></g></g></g><g data-cell-id="OHsQAV0jZeQ9pRgXLDrz-20"><g><path d="M 281 190 L 281 156.56 L 281.27 129.48" fill="none" stroke="#000000" style="stroke: rgb(0, 0, 0);" stroke-miterlimit="10" pointer-events="stroke"/><path d="M 281.33 124.23 L 284.76 131.26 L 281.27 129.48 L 277.76 131.19 Z" fill="#000000" style="fill: rgb(0, 0, 0); stroke: rgb(0, 0, 0);" stroke="#000000" stroke-miterlimit="10" pointer-events="all"/></g></g><g data-cell-id="OHsQAV0jZeQ9pRgXLDrz-18"><g><rect x="221" y="190" width="120" height="80" fill="#ffffff" style="fill: rgb(255, 255, 255); stroke: rgb(0, 0, 0);" stroke="#000000" pointer-events="all"/></g><g><g fill="#000000" style="fill: rgb(0, 0, 0);" font-family="&quot;Noto Serif&quot;" text-anchor="middle" font-size="18px"><text x="281" y="216">DNS-Server</text><text x="281" y="238">auf dem</text><text x="281" y="260">Heimrouter</text></g></g></g><g data-cell-id="OHsQAV0jZeQ9pRgXLDrz-19"><g><ellipse cx="90" cy="345" rx="40" ry="40" fill="#ffffff" style="fill: rgb(255, 255, 255); stroke: rgb(0, 0, 0);" stroke="#000000" pointer-events="all"/></g><g><g fill="#000000" style="fill: rgb(0, 0, 0);" font-family="&quot;Noto Serif&quot;" text-anchor="middle" font-size="18px"><text x="90" y="353">Drucker</text></g></g></g><g data-cell-id="OHsQAV0jZeQ9pRgXLDrz-22"><g><ellipse cx="40" cy="440" rx="40" ry="40" fill="#ffffff" style="fill: rgb(255, 255, 255); stroke: rgb(0, 0, 0);" stroke="#000000" pointer-events="all"/></g><g><g fill="#000000" style="fill: rgb(0, 0, 0);" font-family="&quot;Noto Serif&quot;" text-anchor="middle" font-size="18px"><text x="40" y="448">PC</text></g></g></g><g data-cell-id="OHsQAV0jZeQ9pRgXLDrz-23"><g><ellipse cx="100" cy="540" rx="40" ry="40" fill="#ffffff" style="fill: rgb(255, 255, 255); stroke: rgb(0, 0, 0);" stroke="#000000" pointer-events="all"/></g><g><g fill="#000000" style="fill: rgb(0, 0, 0);" font-family="&quot;Noto Serif&quot;" text-anchor="middle" font-size="18px"><text x="100" y="548">Laptop</text></g></g></g><g data-cell-id="OHsQAV0jZeQ9pRgXLDrz-24"><g><ellipse cx="220" cy="610" rx="40" ry="40" fill="#ffffff" style="fill: rgb(255, 255, 255); stroke: rgb(0, 0, 0);" stroke="#000000" pointer-events="all"/></g><g><g fill="#000000" style="fill: rgb(0, 0, 0);" font-family="&quot;Noto Serif&quot;" text-anchor="middle" font-size="18px"><text x="220" y="618">Tablet</text></g></g></g><g data-cell-id="OHsQAV0jZeQ9pRgXLDrz-25"><g><ellipse cx="350" cy="610" rx="40" ry="40" fill="#ffffff" style="fill: rgb(255, 255, 255); stroke: rgb(0, 0, 0);" stroke="#000000" pointer-events="all"/></g><g><g fill="#000000" style="fill: rgb(0, 0, 0);" font-family="&quot;Noto Serif&quot;" text-anchor="middle" font-size="18px"><text x="350" y="607">Kühl-</text><text x="350" y="629">schrank</text></g></g></g><g data-cell-id="OHsQAV0jZeQ9pRgXLDrz-26"><g><ellipse cx="440" cy="530" rx="40" ry="40" fill="#ffffff" style="fill: rgb(255, 255, 255); stroke: rgb(0, 0, 0);" stroke="#000000" pointer-events="all"/></g><g><g fill="#000000" style="fill: rgb(0, 0, 0);" font-family="&quot;Noto Serif&quot;" text-anchor="middle" font-size="18px"><text x="440" y="527">Spiele-</text><text x="440" y="549">konsole</text></g></g></g><g data-cell-id="OHsQAV0jZeQ9pRgXLDrz-27"><g><ellipse cx="460" cy="345" rx="40" ry="40" fill="#ffffff" style="fill: rgb(255, 255, 255); stroke: rgb(0, 0, 0);" stroke="#000000" pointer-events="all"/></g><g><g fill="#000000" style="fill: rgb(0, 0, 0);" font-family="&quot;Noto Serif&quot;" text-anchor="middle" font-size="18px"><text x="460" y="353">TV</text></g></g></g><g data-cell-id="OHsQAV0jZeQ9pRgXLDrz-28"><g><ellipse cx="525" cy="435" rx="45" ry="45" fill="#ffffff" style="fill: rgb(255, 255, 255); stroke: rgb(0, 0, 0);" stroke="#000000" pointer-events="all"/></g><g><g fill="#000000" style="fill: rgb(0, 0, 0);" font-family="&quot;Noto Serif&quot;" text-anchor="middle" font-size="18px"><text x="525" y="432">Haustür-</text><text x="525" y="454">kamera</text></g></g></g><g data-cell-id="OHsQAV0jZeQ9pRgXLDrz-30"><g><path d="M 130 345 L 224.89 366.21" fill="none" stroke="#000000" style="stroke: rgb(0, 0, 0);" stroke-miterlimit="10" pointer-events="stroke"/><path d="M 230.01 367.36 L 222.41 369.24 L 224.89 366.21 L 223.94 362.41 Z" fill="#000000" style="fill: rgb(0, 0, 0); stroke: rgb(0, 0, 0);" stroke="#000000" stroke-miterlimit="10" pointer-events="all"/></g></g><g data-cell-id="OHsQAV0jZeQ9pRgXLDrz-31"><g><path d="M 80 440 L 223.76 411.25" fill="none" stroke="#000000" style="stroke: rgb(0, 0, 0);" stroke-miterlimit="10" pointer-events="stroke"/><path d="M 228.9 410.22 L 222.73 415.02 L 223.76 411.25 L 221.35 408.16 Z" fill="#000000" style="fill: rgb(0, 0, 0); stroke: rgb(0, 0, 0);" stroke="#000000" stroke-miterlimit="10" pointer-events="all"/></g></g><g data-cell-id="OHsQAV0jZeQ9pRgXLDrz-32"><g><path d="M 128.28 511.72 L 240.87 428.78" fill="none" stroke="#000000" style="stroke: rgb(0, 0, 0);" stroke-miterlimit="10" pointer-events="stroke"/><path d="M 245.1 425.66 L 241.54 432.63 L 240.87 428.78 L 237.39 427 Z" fill="#000000" style="fill: rgb(0, 0, 0); stroke: rgb(0, 0, 0);" stroke="#000000" stroke-miterlimit="10" pointer-events="all"/></g></g><g data-cell-id="OHsQAV0jZeQ9pRgXLDrz-33"><g><path d="M 220 570 L 261.74 448.22" fill="none" stroke="#000000" style="stroke: rgb(0, 0, 0);" stroke-miterlimit="10" pointer-events="stroke"/><path d="M 263.44 443.26 L 264.48 451.01 L 261.74 448.22 L 257.86 448.74 Z" fill="#000000" style="fill: rgb(0, 0, 0); stroke: rgb(0, 0, 0);" stroke="#000000" stroke-miterlimit="10" pointer-events="all"/></g></g><g data-cell-id="OHsQAV0jZeQ9pRgXLDrz-34"><g><path d="M 339.1 571.51 L 304.64 450.13" fill="none" stroke="#000000" style="stroke: rgb(0, 0, 0);" stroke-miterlimit="10" pointer-events="stroke"/><path d="M 303.21 445.08 L 308.48 450.85 L 304.64 450.13 L 301.75 452.77 Z" fill="#000000" style="fill: rgb(0, 0, 0); stroke: rgb(0, 0, 0);" stroke="#000000" stroke-miterlimit="10" pointer-events="all"/></g></g><g data-cell-id="OHsQAV0jZeQ9pRgXLDrz-35"><g><path d="M 411.72 501.72 L 320.97 428.98" fill="none" stroke="#000000" style="stroke: rgb(0, 0, 0);" stroke-miterlimit="10" pointer-events="stroke"/><path d="M 316.87 425.7 L 324.52 427.35 L 320.97 428.98 L 320.15 432.81 Z" fill="#000000" style="fill: rgb(0, 0, 0); stroke: rgb(0, 0, 0);" stroke="#000000" stroke-miterlimit="10" pointer-events="all"/></g></g><g data-cell-id="OHsQAV0jZeQ9pRgXLDrz-36"><g><path d="M 480 435 L 339.15 407.04" fill="none" stroke="#000000" style="stroke: rgb(0, 0, 0);" stroke-miterlimit="10" pointer-events="stroke"/><path d="M 334 406.02 L 341.54 403.95 L 339.15 407.04 L 340.18 410.81 Z" fill="#000000" style="fill: rgb(0, 0, 0); stroke: rgb(0, 0, 0);" stroke="#000000" stroke-miterlimit="10" pointer-events="all"/></g></g><g data-cell-id="OHsQAV0jZeQ9pRgXLDrz-37"><g><path d="M 420 345 L 339 369.46" fill="none" stroke="#000000" style="stroke: rgb(0, 0, 0);" stroke-miterlimit="10" pointer-events="stroke"/><path d="M 333.97 370.98 L 339.66 365.6 L 339 369.46 L 341.68 372.3 Z" fill="#000000" style="fill: rgb(0, 0, 0); stroke: rgb(0, 0, 0);" stroke="#000000" stroke-miterlimit="10" pointer-events="all"/></g></g></g></g></g></svg>