<?xml version="1.0" encoding="UTF-8"?>
<!DOCTYPE svg PUBLIC "-//W3C//DTD SVG 1.1//EN" "http://www.w3.org/Graphics/SVG/1.1/DTD/svg11.dtd">
<svg class="diagram" xmlns="http://www.w3.org/2000/svg" version="1.1" height="320" width="536" style="margin:0 auto 0 auto;">
<defs>
<style type="text/css">
  svg.diagram {
    display: block;
    font-family: Menlo,Consolas,monospace;
    font-size: 90%;
    text-align: center;
    stroke-linecap: round;
    stroke-width: 2px;
    page-break-inside: avoid;
    stroke: #000;
    fill: #000;
  }
  svg.diagram .opendot {
    fill: #fff;
  }
  svg.diagram .shadeddot {
    fill: #CCC;
  }
  .md svg.diagram .dotteddot {
    stroke: #000;
    stroke-dasharray: 4;
    fill: none;
  }
  svg.diagram text {
    stroke: none;
  }
</style>
</defs>

<g transform="translate(8,16 )">
<path d="M 120,224 L 120,288 " style="fill:none;"></path>
<path d="M 192,224 L 192,288 " style="fill:none;"></path>
<path d="M 208,192 L 208,256 " style="fill:none;"></path>
<path d="M 344,160 L 344,192 " style="fill:none;"></path>
<path d="M 360,16 L 360,48 " style="fill:none;"></path>
<path d="M 384,56 L 384,104 " style="fill:none;"></path>
<path d="M 384,120 L 384,152 " style="fill:none;"></path>
<path d="M 384,192 L 384,240 " style="fill:none;"></path>
<path d="M 408,192 L 408,256 " style="fill:none;"></path>
<path d="M 432,16 L 432,48 " style="fill:none;"></path>
<path d="M 456,160 L 456,192 " style="fill:none;"></path>
<path d="M 120,16 L 128,16 " style="fill:none;"></path>
<path d="M 360,16 L 432,16 " style="fill:none;"></path>
<path d="M 88,32 L 104,32 " style="fill:none;"></path>
<path d="M 176,32 L 184,32 " style="fill:none;"></path>
<path d="M 208,32 L 352,32 " style="fill:none;"></path>
<path d="M 360,48 L 432,48 " style="fill:none;"></path>
<path d="M 88,64 L 184,64 " style="fill:none;"></path>
<path d="M 32,112 L 480,112 " style="fill:none;"></path>
<path d="M 344,160 L 456,160 " style="fill:none;"></path>
<path d="M 136,192 L 208,192 " style="fill:none;"></path>
<path d="M 344,192 L 456,192 " style="fill:none;"></path>
<path d="M 120,224 L 192,224 " style="fill:none;"></path>
<path d="M 216,240 L 384,240 " style="fill:none;"></path>
<path d="M 216,256 L 408,256 " style="fill:none;"></path>
<path d="M 120,288 L 192,288 " style="fill:none;"></path>
<path d="M 120,224 L 136,192 " style="fill:none;"></path>
<path d="M 192,224 L 208,192 " style="fill:none;"></path>
<path d="M 192,240 L 208,208 " style="fill:none;"></path>
<path d="M 192,256 L 208,224 " style="fill:none;"></path>
<path d="M 192,272 L 208,240 " style="fill:none;"></path>
<path d="M 192,288 L 208,256 " style="fill:none;"></path>
<path d="M 144,0 C 127.2,0 128,16 128,16 " style="fill:none;"></path>
<path d="M 144,0 C 160.8,0 160,16 160,16 " style="fill:none;"></path>
<path d="M 120,16 C 103.2,16 104,32 104,32 " style="fill:none;"></path>
<path d="M 88,32 C 71.2,32 72,48 72,48 " style="fill:none;"></path>
<path d="M 176,32 C 159.2,32 160,16 160,16 " style="fill:none;"></path>
<path d="M 184,32 C 200.8,32 200,48 200,48 " style="fill:none;"></path>
<path d="M 88,64 C 71.2,64 72,48 72,48 " style="fill:none;"></path>
<path d="M 184,64 C 200.8,64 200,48 200,48 " style="fill:none;"></path>
<polygon points="392,152 380,146.4 380,157.6 " style="stroke:none" transform="rotate(90,384,152 )"></polygon>
<polygon points="360,32 348,26.4 348,37.6 " style="stroke:none" transform="rotate(0,352,32 )"></polygon>
<polygon points="224,256 212,250.4 212,261.6 " style="stroke:none" transform="rotate(180,216,256 )"></polygon>
<polygon points="224,240 212,234.4 212,245.6 " style="stroke:none" transform="rotate(180,216,240 )"></polygon>
<g transform="translate(0,0)"><text text-anchor="middle" x="272" y="20">W</text><text text-anchor="middle" x="280" y="20">A</text><text text-anchor="middle" x="288" y="20">N</text><text text-anchor="middle" x="376" y="36">R</text><text text-anchor="middle" x="384" y="36">o</text><text text-anchor="middle" x="392" y="36">u</text><text text-anchor="middle" x="400" y="36">t</text><text text-anchor="middle" x="408" y="36">e</text><text text-anchor="middle" x="416" y="36">r</text><text text-anchor="middle" x="112" y="52">I</text><text text-anchor="middle" x="120" y="52">n</text><text text-anchor="middle" x="128" y="52">t</text><text text-anchor="middle" x="136" y="52">e</text><text text-anchor="middle" x="144" y="52">r</text><text text-anchor="middle" x="152" y="52">n</text><text text-anchor="middle" x="160" y="52">e</text><text text-anchor="middle" x="168" y="52">t</text><text text-anchor="middle" x="392" y="84">L</text><text text-anchor="middle" x="400" y="84">A</text><text text-anchor="middle" x="408" y="84">N</text><text text-anchor="middle" x="128" y="100">O</text><text text-anchor="middle" x="136" y="100">b</text><text text-anchor="middle" x="144" y="100">e</text><text text-anchor="middle" x="152" y="100">n</text><text text-anchor="middle" x="160" y="100">:</text><text text-anchor="middle" x="176" y="100">E</text><text text-anchor="middle" x="184" y="100">s</text><text text-anchor="middle" x="192" y="100">s</text><text text-anchor="middle" x="200" y="100">z</text><text text-anchor="middle" x="208" y="100">i</text><text text-anchor="middle" x="216" y="100">m</text><text text-anchor="middle" x="224" y="100">m</text><text text-anchor="middle" x="232" y="100">e</text><text text-anchor="middle" x="240" y="100">r</text><text text-anchor="middle" x="128" y="132">U</text><text text-anchor="middle" x="136" y="132">n</text><text text-anchor="middle" x="144" y="132">t</text><text text-anchor="middle" x="152" y="132">e</text><text text-anchor="middle" x="160" y="132">n</text><text text-anchor="middle" x="168" y="132">:</text><text text-anchor="middle" x="184" y="132">G</text><text text-anchor="middle" x="192" y="132">a</text><text text-anchor="middle" x="200" y="132">r</text><text text-anchor="middle" x="208" y="132">a</text><text text-anchor="middle" x="216" y="132">g</text><text text-anchor="middle" x="224" y="132">e</text><text text-anchor="middle" x="392" y="148">P</text><text text-anchor="middle" x="400" y="148">o</text><text text-anchor="middle" x="408" y="148">E</text><text text-anchor="middle" x="360" y="180">M</text><text text-anchor="middle" x="368" y="180">i</text><text text-anchor="middle" x="376" y="180">n</text><text text-anchor="middle" x="384" y="180">i</text><text text-anchor="middle" x="392" y="180">-</text><text text-anchor="middle" x="400" y="180">S</text><text text-anchor="middle" x="408" y="180">w</text><text text-anchor="middle" x="416" y="180">i</text><text text-anchor="middle" x="424" y="180">t</text><text text-anchor="middle" x="432" y="180">c</text><text text-anchor="middle" x="440" y="180">h</text><text text-anchor="middle" x="144" y="212">#</text><text text-anchor="middle" x="184" y="212">#</text><text text-anchor="middle" x="224" y="228">H</text><text text-anchor="middle" x="232" y="228">a</text><text text-anchor="middle" x="240" y="228">u</text><text text-anchor="middle" x="248" y="228">p</text><text text-anchor="middle" x="256" y="228">t</text><text text-anchor="middle" x="264" y="228">-</text><text text-anchor="middle" x="272" y="228">N</text><text text-anchor="middle" x="280" y="228">e</text><text text-anchor="middle" x="288" y="228">t</text><text text-anchor="middle" x="296" y="228">z</text><text text-anchor="middle" x="304" y="228">w</text><text text-anchor="middle" x="312" y="228">e</text><text text-anchor="middle" x="320" y="228">r</text><text text-anchor="middle" x="328" y="228">k</text><text text-anchor="middle" x="336" y="228">k</text><text text-anchor="middle" x="344" y="228">a</text><text text-anchor="middle" x="352" y="228">r</text><text text-anchor="middle" x="360" y="228">t</text><text text-anchor="middle" x="368" y="228">e</text><text text-anchor="middle" x="136" y="260">S</text><text text-anchor="middle" x="144" y="260">e</text><text text-anchor="middle" x="152" y="260">r</text><text text-anchor="middle" x="160" y="260">v</text><text text-anchor="middle" x="168" y="260">e</text><text text-anchor="middle" x="176" y="260">r</text><text text-anchor="middle" x="224" y="276">I</text><text text-anchor="middle" x="232" y="276">P</text><text text-anchor="middle" x="240" y="276">M</text><text text-anchor="middle" x="248" y="276">I</text><text text-anchor="middle" x="256" y="276">-</text><text text-anchor="middle" x="264" y="276">N</text><text text-anchor="middle" x="272" y="276">e</text><text text-anchor="middle" x="280" y="276">t</text><text text-anchor="middle" x="288" y="276">z</text><text text-anchor="middle" x="296" y="276">w</text><text text-anchor="middle" x="304" y="276">e</text><text text-anchor="middle" x="312" y="276">r</text><text text-anchor="middle" x="320" y="276">k</text><text text-anchor="middle" x="328" y="276">k</text><text text-anchor="middle" x="336" y="276">a</text><text text-anchor="middle" x="344" y="276">r</text><text text-anchor="middle" x="352" y="276">t</text><text text-anchor="middle" x="360" y="276">e</text></g></g></svg>
